<svg width="285" height="53" viewBox="0 0 285 53" fill="none" xmlns="http://www.w3.org/2000/svg">
<path d="M28.436 33.0518C28.5207 33.1787 28.4995 33.6019 28.3726 34.3213C28.2879 35.0407 28.1398 35.8236 27.9282 36.6699C27.759 37.5163 27.5685 38.3203 27.3569 39.082C27.1877 39.8014 27.0396 40.2246 26.9126 40.3516H26.2778C26.1509 40.3516 26.0239 40.3304 25.897 40.2881C26.1086 42.3193 26.2778 43.9486 26.4048 45.1758C26.5317 46.403 26.5952 47.0801 26.5952 47.207C26.5952 47.5033 26.4471 47.9264 26.1509 48.4766C25.897 49.0267 25.6007 49.5345 25.2622 50C24.9237 50.4655 24.564 50.8252 24.1831 51.0791C23.8446 51.3753 23.6118 51.3965 23.4849 51.1426C23.2733 50.7617 22.8289 49.6191 22.1519 47.7148C21.4748 45.8105 20.7131 43.208 19.8667 39.9072C19.0203 39.8226 18.1317 39.738 17.2007 39.6533C16.312 39.5687 15.4022 39.484 14.4712 39.3994C13.5402 39.3148 12.6092 39.209 11.6782 39.082C10.7896 38.9128 9.92204 38.7646 9.07568 38.6377C8.65251 40.4997 8.22933 42.2559 7.80615 43.9062C7.42529 45.5566 7.04443 46.9954 6.66357 48.2227C6.32503 49.4499 6.02881 50.4232 5.7749 51.1426C5.521 51.862 5.33057 52.2217 5.20361 52.2217C4.86507 52.2217 4.52653 52.0101 4.18799 51.5869C3.84945 51.1637 3.53206 50.6559 3.23584 50.0635C2.98193 49.471 2.77035 48.8574 2.60107 48.2227C2.4318 47.5879 2.34717 47.0589 2.34717 46.6357C2.4318 45.6624 2.5376 44.6468 2.66455 43.5889C2.83382 42.5309 2.96077 41.5576 3.04541 40.6689C3.17236 39.611 3.29932 38.5742 3.42627 37.5586H3.17236C3.00309 37.474 2.77035 37.2835 2.47412 36.9873C2.1779 36.6911 1.88167 36.3949 1.58545 36.0986C1.28923 35.7601 1.03532 35.4427 0.82373 35.1465C0.612142 34.8079 0.506348 34.554 0.506348 34.3848C0.506348 34.3001 0.802572 34.2155 1.39502 34.1309C2.02979 34.0462 2.85498 33.9616 3.87061 33.877C4.20915 31.3379 4.56885 28.693 4.94971 25.9424C5.33057 23.1917 5.71143 20.6104 6.09229 18.1982C6.47314 15.7861 6.83285 13.6914 7.17139 11.9141C7.55225 10.0944 7.86963 8.84603 8.12354 8.16895C8.54671 7.02637 9.28727 6.01074 10.3452 5.12207C11.4032 4.19108 12.5034 3.42936 13.646 2.83691C14.8309 2.20215 15.9523 1.71549 17.0103 1.37695C18.0682 1.03841 18.8511 0.869141 19.3589 0.869141C19.5705 0.869141 19.8032 1.35579 20.0571 2.3291C20.3534 3.26009 20.6496 4.52962 20.9458 6.1377C21.2843 7.74577 21.6229 9.62891 21.9614 11.7871C22.3423 13.903 22.702 16.1458 23.0405 18.5156C23.3791 20.8854 23.6965 23.3187 23.9927 25.8154C24.3312 28.2699 24.6486 30.6185 24.9448 32.8613C27.0607 32.8613 28.2244 32.9248 28.436 33.0518ZM10.2817 33.4326C11.6359 33.348 12.9901 33.2845 14.3442 33.2422C15.6984 33.1999 17.0314 33.1364 18.3433 33.0518C18.0047 31.4014 17.6239 29.5605 17.2007 27.5293C16.8621 25.7943 16.4601 23.763 15.9946 21.4355C15.5291 19.1081 15.0636 16.5479 14.5981 13.7549C14.0903 16.2516 13.5825 18.6849 13.0747 21.0547C12.5669 23.3822 12.1014 25.4769 11.6782 27.3389C11.2127 29.4971 10.7472 31.5283 10.2817 33.4326ZM52.2524 23.4033C52.2524 24.0804 52.1678 25.0537 51.9985 26.3232C51.8716 27.5928 51.6812 28.9893 51.4272 30.5127C51.1733 31.9938 50.8983 33.5384 50.6021 35.1465C50.3481 36.7122 50.0731 38.151 49.7769 39.4629C49.5229 40.7747 49.2902 41.875 49.0786 42.7637C48.9093 43.6523 48.8035 44.139 48.7612 44.2236C48.6766 44.3506 48.4438 44.4352 48.063 44.4775C47.7244 44.4775 47.3224 44.4352 46.8569 44.3506C46.4338 44.266 46.0317 44.139 45.6509 43.9697C45.3123 43.8005 45.1007 43.5889 45.0161 43.335C44.9738 43.1657 44.9526 42.5732 44.9526 41.5576C44.995 40.542 45.0373 39.3359 45.0796 37.9395C45.1642 36.5007 45.2489 34.9772 45.3335 33.3691C45.4181 31.7188 45.5028 30.1953 45.5874 28.7988C45.7144 27.36 45.799 26.1328 45.8413 25.1172C45.9259 24.1016 45.9683 23.488 45.9683 23.2764C45.9683 22.5146 45.8836 21.7952 45.7144 21.1182C45.5874 20.3988 45.4181 19.7852 45.2065 19.2773C44.995 18.7695 44.741 18.3887 44.4448 18.1348C44.1909 17.8385 43.9582 17.7327 43.7466 17.8174C43.1965 17.902 42.731 18.0501 42.3501 18.2617C41.9692 18.431 41.6519 18.6214 41.3979 18.833C41.1017 19.0869 40.869 19.3831 40.6997 19.7217C40.6574 19.8063 40.5728 20.0602 40.4458 20.4834C40.3612 20.9066 40.3188 21.3932 40.3188 21.9434C40.3188 22.1126 40.3188 22.7262 40.3188 23.7842C40.3188 24.7998 40.2977 26.027 40.2554 27.4658C40.2554 28.9046 40.2342 30.4704 40.1919 32.1631C40.1919 33.8135 40.1707 35.3581 40.1284 36.7969C40.1284 38.1934 40.1073 39.3994 40.0649 40.415C40.0226 41.4307 39.9803 42.002 39.938 42.1289C39.8534 42.3828 39.6418 42.7425 39.3032 43.208C38.9647 43.6312 38.5838 44.0332 38.1606 44.4141C37.7375 44.7949 37.3354 45.0911 36.9546 45.3027C36.5737 45.472 36.3198 45.4297 36.1929 45.1758C36.0659 45.0488 35.939 44.4352 35.812 43.335C35.6851 42.1924 35.5369 40.8171 35.3677 39.209C35.2407 37.5586 35.0926 35.7812 34.9233 33.877C34.7541 31.9303 34.606 30.0684 34.479 28.291C34.3521 26.5137 34.2463 24.9056 34.1616 23.4668C34.077 22.028 34.0135 20.9912 33.9712 20.3564C33.9289 19.4678 33.8866 18.4733 33.8442 17.373C33.8019 16.2305 33.7596 15.1725 33.7173 14.1992C33.7173 13.1836 33.7173 12.3161 33.7173 11.5967C33.7596 10.835 33.8442 10.3695 33.9712 10.2002C34.0558 10.0309 34.3309 9.98861 34.7964 10.0732C35.3042 10.1579 35.8332 10.3271 36.3833 10.5811C36.9757 10.7926 37.5259 11.0677 38.0337 11.4062C38.5415 11.7025 38.88 11.9987 39.0493 12.2949C39.134 12.5488 39.2397 12.8451 39.3667 13.1836C39.4937 13.4798 39.5994 13.9876 39.6841 14.707C40.4035 14.2839 41.1864 13.903 42.0327 13.5645C42.8791 13.1836 43.7043 12.9085 44.5083 12.7393C45.3547 12.5277 46.1587 12.4642 46.9204 12.5488C47.6821 12.5911 48.3592 12.8027 48.9517 13.1836C49.3325 13.4798 49.7134 13.9876 50.0942 14.707C50.5174 15.4264 50.8771 16.2728 51.1733 17.2461C51.5119 18.2194 51.7658 19.2562 51.9351 20.3564C52.1466 21.4144 52.2524 22.43 52.2524 23.4033ZM77.7192 18.7695C77.7616 19.235 77.6769 19.9544 77.4653 20.9277C77.2961 21.901 77.021 22.8743 76.6401 23.8477C76.3016 24.821 75.8361 25.6673 75.2437 26.3867C74.6935 27.1061 74.0588 27.4658 73.3394 27.4658C72.8315 27.4658 72.4084 27.0638 72.0698 26.2598C71.7736 25.4557 71.5409 24.5247 71.3716 23.4668C71.2446 22.3665 71.1388 21.2874 71.0542 20.2295C70.9696 19.1715 70.8849 18.431 70.8003 18.0078C70.6733 17.7962 70.4194 17.6058 70.0386 17.4365C69.7 17.2249 69.3615 17.1191 69.0229 17.1191C68.6844 17.1191 68.3035 17.3942 67.8804 17.9443C67.4572 18.4945 67.034 19.1292 66.6108 19.8486C66.23 20.568 65.8914 21.2874 65.5952 22.0068C65.3413 22.7262 65.2355 23.2552 65.2778 23.5938C65.2778 23.8477 65.5529 24.292 66.103 24.9268C66.6532 25.5615 67.3302 26.3232 68.1343 27.2119C68.9806 28.0583 69.8693 28.9893 70.8003 30.0049C71.7736 30.9782 72.6623 31.9727 73.4663 32.9883C74.2703 33.9616 74.9474 34.8926 75.4976 35.7812C76.09 36.6699 76.4074 37.4316 76.4497 38.0664C76.492 38.8281 76.2804 39.8014 75.8149 40.9863C75.3918 42.1712 74.8416 43.3138 74.1646 44.4141C73.4875 45.5143 72.7681 46.4665 72.0063 47.2705C71.2446 48.0745 70.5675 48.4977 69.9751 48.54C69.3826 48.5824 68.5151 48.265 67.3726 47.5879C66.2723 46.8685 65.1509 46.0433 64.0083 45.1123C62.908 44.139 61.9136 43.1868 61.0249 42.2559C60.1785 41.3249 59.6919 40.6478 59.5649 40.2246C59.438 39.8438 59.3534 39.3359 59.311 38.7012C59.311 38.0664 59.3322 37.4316 59.3745 36.7969C59.4591 36.1621 59.5861 35.6331 59.7554 35.21C59.9246 34.7445 60.1362 34.5117 60.3901 34.5117C60.644 34.5117 61.1519 34.9561 61.9136 35.8447C62.6753 36.6911 63.5005 37.6644 64.3892 38.7646C65.2778 39.8226 66.1453 40.7959 66.9917 41.6846C67.8381 42.5309 68.4517 42.9541 68.8325 42.9541C69.0441 42.9541 69.2769 42.806 69.5308 42.5098C69.7847 42.1712 70.0174 41.7904 70.229 41.3672C70.4406 40.944 70.6099 40.5208 70.7368 40.0977C70.9061 39.6322 70.9907 39.2725 70.9907 39.0186C70.9484 38.6377 70.6099 38.0876 69.9751 37.3682C69.3403 36.6488 68.5363 35.8447 67.563 34.9561C66.5897 34.0674 65.5317 33.1364 64.3892 32.1631C63.2466 31.1475 62.1886 30.1953 61.2153 29.3066C60.242 28.418 59.438 27.6139 58.8032 26.8945C58.1685 26.1751 57.8299 25.625 57.7876 25.2441C57.7453 24.8633 57.8722 24.2708 58.1685 23.4668C58.4647 22.6204 58.8455 21.7106 59.311 20.7373C59.7765 19.7217 60.3055 18.6849 60.8979 17.627C61.5327 16.569 62.1675 15.5957 62.8022 14.707C63.437 13.8184 64.0506 13.099 64.6431 12.5488C65.2778 11.9564 65.828 11.6602 66.2935 11.6602C67.2244 11.6602 68.3247 11.9141 69.5942 12.4219C70.9061 12.9297 72.1545 13.5645 73.3394 14.3262C74.5243 15.0456 75.5399 15.8073 76.3862 16.6113C77.2326 17.4154 77.6769 18.1348 77.7192 18.7695ZM98.1714 21.1182C98.5946 21.3721 98.9966 21.8376 99.3774 22.5146C99.8006 23.1917 100.181 23.9746 100.52 24.8633C100.859 25.7096 101.134 26.6406 101.345 27.6562C101.557 28.6296 101.663 29.5605 101.663 30.4492C101.663 31.0417 101.578 31.9303 101.409 33.1152C101.239 34.2578 101.028 35.5273 100.774 36.9238C100.52 38.278 100.245 39.6745 99.9487 41.1133C99.6525 42.5521 99.3774 43.8639 99.1235 45.0488C98.8696 46.2337 98.6369 47.2282 98.4253 48.0322C98.2137 48.8363 98.0868 49.2806 98.0444 49.3652C97.9598 49.4922 97.7059 49.5768 97.2827 49.6191C96.9019 49.6615 96.4787 49.6403 96.0132 49.5557C95.59 49.471 95.188 49.3441 94.8071 49.1748C94.4263 49.0055 94.1935 48.7939 94.1089 48.54C94.0666 48.3708 94.0454 47.8418 94.0454 46.9531C94.0877 46.0221 94.13 44.9219 94.1724 43.6523C94.257 42.3828 94.3416 41.0075 94.4263 39.5264C94.5532 38.0452 94.659 36.6699 94.7437 35.4004C94.8283 34.0885 94.8918 32.9671 94.9341 32.0361C95.0187 31.1051 95.061 30.555 95.061 30.3857C95.1034 29.7087 95.0399 29.0527 94.8706 28.418C94.7437 27.7409 94.5532 27.1696 94.2993 26.7041C94.0877 26.2386 93.8338 25.8789 93.5376 25.625C93.2837 25.3711 93.0298 25.2865 92.7759 25.3711C92.395 25.4557 92.0142 25.5615 91.6333 25.6885C91.2948 25.8154 90.9985 25.9212 90.7446 26.0059C90.4061 26.1328 90.1099 26.2598 89.856 26.3867C89.8136 29.5182 89.7502 32.5863 89.6655 35.5908C89.5809 38.5954 89.4751 41.3037 89.3481 43.7158C89.2212 46.0856 89.0731 48.0111 88.9038 49.4922C88.7769 50.931 88.6287 51.6715 88.4595 51.7139C88.1209 51.7562 87.7401 51.6081 87.3169 51.2695C86.936 50.931 86.5552 50.5078 86.1743 50C85.7935 49.5345 85.4549 49.0267 85.1587 48.4766C84.9048 47.9264 84.7355 47.4609 84.6509 47.0801C84.3123 42.9329 84.0373 39.2301 83.8257 35.9717C83.6141 32.6709 83.4448 29.751 83.3179 27.2119C83.1909 24.6729 83.0851 22.4723 83.0005 20.6104C82.9582 18.7484 82.937 17.1615 82.937 15.8496C82.8947 12.7604 82.937 10.6234 83.064 9.43848C83.2332 8.5498 83.6141 7.70345 84.2065 6.89941C84.799 6.05306 85.4338 5.3125 86.1108 4.67773C86.8302 4.04297 87.4862 3.57747 88.0786 3.28125C88.7134 2.94271 89.1366 2.85807 89.3481 3.02734C89.4751 3.1543 89.5809 3.74674 89.6655 4.80469C89.7925 5.82031 89.8771 7.19564 89.9194 8.93066C89.9618 10.6234 89.9829 12.5911 89.9829 14.834C89.9829 17.0345 89.9618 19.362 89.9194 21.8164C91.6121 21.1393 93.1779 20.7161 94.6167 20.5469C96.0978 20.3776 97.2827 20.568 98.1714 21.1182ZM122.432 16.04C122.517 16.167 122.644 16.7594 122.813 17.8174C122.982 18.8753 123.152 20.1872 123.321 21.7529C123.532 23.3187 123.723 25.0114 123.892 26.8311C124.104 28.6507 124.294 30.3857 124.463 32.0361C124.675 33.6865 124.844 35.1676 124.971 36.4795C125.098 37.7913 125.204 38.68 125.289 39.1455C125.416 39.9072 125.564 40.7536 125.733 41.6846C125.902 42.5732 126.05 43.4408 126.177 44.2871C126.304 45.0911 126.389 45.7894 126.431 46.3818C126.516 46.9743 126.495 47.334 126.368 47.4609C126.283 47.5879 125.944 47.6302 125.352 47.5879C124.76 47.5033 124.104 47.3763 123.384 47.207C122.707 46.9954 122.051 46.7627 121.417 46.5088C120.824 46.2126 120.443 45.9375 120.274 45.6836C120.105 45.472 119.935 45.1546 119.766 44.7314C119.639 44.3083 119.47 43.5677 119.258 42.5098C118.793 43.1445 118.285 43.8216 117.735 44.541C117.227 45.2181 116.719 45.8529 116.211 46.4453C115.704 46.9954 115.238 47.4398 114.815 47.7783C114.392 48.1169 114.074 48.2861 113.863 48.2861C113.524 48.2861 113.016 47.9476 112.339 47.2705C111.662 46.5511 110.985 45.7471 110.308 44.8584C109.631 43.9697 109.017 43.1234 108.467 42.3193C107.917 41.5153 107.621 40.9863 107.579 40.7324C107.494 40.4785 107.452 39.7803 107.452 38.6377C107.494 37.4951 107.536 36.2256 107.579 34.8291C107.663 33.3903 107.748 31.9727 107.833 30.5762C107.917 29.1374 108.002 27.9948 108.086 27.1484C108.171 26.3021 108.256 25.3711 108.34 24.3555C108.467 23.2975 108.594 22.3242 108.721 21.4355C108.848 20.5046 108.954 19.7005 109.039 19.0234C109.166 18.3464 109.271 17.9443 109.356 17.8174C109.441 17.6904 109.673 17.627 110.054 17.627C110.477 17.5846 110.901 17.6058 111.324 17.6904C111.789 17.7327 112.212 17.8385 112.593 18.0078C112.974 18.1348 113.228 18.304 113.355 18.5156C113.44 18.6849 113.482 19.235 113.482 20.166C113.524 21.0547 113.545 22.1549 113.545 23.4668C113.545 24.7363 113.545 26.1328 113.545 27.6562C113.545 29.1374 113.524 30.5339 113.482 31.8457C113.482 33.1152 113.461 34.2155 113.418 35.1465C113.418 36.0352 113.418 36.5641 113.418 36.7334C113.418 37.0719 113.609 37.7279 113.99 38.7012C114.413 39.6745 114.836 40.6055 115.259 41.4941L118.56 37.5586C118.518 36.7969 118.475 35.8236 118.433 34.6387C118.433 33.4538 118.412 32.2054 118.37 30.8936C118.327 29.5817 118.285 28.2487 118.243 26.8945C118.2 25.5404 118.179 24.3132 118.179 23.2129C118.179 22.1126 118.179 21.2028 118.179 20.4834C118.179 19.764 118.2 19.3408 118.243 19.2139C118.37 18.96 118.624 18.6214 119.004 18.1982C119.385 17.7751 119.808 17.373 120.274 16.9922C120.739 16.6113 121.163 16.3151 121.543 16.1035C121.967 15.8919 122.263 15.8708 122.432 16.04ZM137.489 49.6191C137.193 49.7038 136.854 49.598 136.473 49.3018C136.092 49.0055 135.711 48.6458 135.331 48.2227C134.992 47.7572 134.696 47.2705 134.442 46.7627C134.188 46.2549 134.019 45.8317 133.934 45.4932C133.638 41.7692 133.384 38.4473 133.172 35.5273C133.003 32.5651 132.855 29.9414 132.728 27.6562C132.601 25.3711 132.495 23.4033 132.411 21.7529C132.368 20.0602 132.347 18.6214 132.347 17.4365C132.305 14.6859 132.347 12.7816 132.474 11.7236C132.601 10.9619 132.94 10.2002 133.49 9.43848C134.082 8.67676 134.696 8.02083 135.331 7.4707C136.008 6.92057 136.621 6.4974 137.171 6.20117C137.764 5.90495 138.145 5.82031 138.314 5.94727C138.483 6.07422 138.61 6.79362 138.695 8.10547C138.779 9.375 138.843 11.0465 138.885 13.1201C138.928 15.1937 138.928 17.5212 138.885 20.1025C138.885 22.6839 138.843 25.3288 138.758 28.0371C138.716 30.7454 138.653 33.3903 138.568 35.9717C138.483 38.5531 138.377 40.8594 138.25 42.8906C138.124 44.8796 137.997 46.4876 137.87 47.7148C137.743 48.9421 137.616 49.5768 137.489 49.6191ZM192.929 6.20117C193.014 6.37044 193.056 6.96289 193.056 7.97852C193.098 8.99414 193.098 10.2214 193.056 11.6602C193.056 13.099 193.014 14.6436 192.929 16.2939C192.845 17.902 192.739 19.4255 192.612 20.8643C192.527 21.6683 192.379 22.8743 192.167 24.4824C191.998 26.0905 191.787 27.8678 191.533 29.8145C191.279 31.7611 191.004 33.7712 190.708 35.8447C190.454 37.876 190.2 39.7591 189.946 41.4941C189.692 43.1868 189.459 44.6045 189.248 45.7471C189.078 46.8896 188.951 47.5033 188.867 47.5879C188.697 47.7148 188.422 48.0322 188.042 48.54C187.661 49.0055 187.237 49.4922 186.772 50C186.349 50.4655 185.947 50.8464 185.566 51.1426C185.185 51.4388 184.931 51.4811 184.804 51.2695C184.72 50.8464 184.677 49.5345 184.677 47.334C184.677 46.403 184.677 45.2393 184.677 43.8428C184.72 42.404 184.762 40.6689 184.804 38.6377C184.889 36.6064 184.995 34.2367 185.122 31.5283C185.249 28.82 185.397 25.6885 185.566 22.1338C184.72 25.0114 183.958 27.5505 183.281 29.751C182.646 31.9515 182.075 33.877 181.567 35.5273C181.101 37.1354 180.699 38.5107 180.361 39.6533C180.022 40.7536 179.726 41.6634 179.472 42.3828C178.922 44.0755 178.562 45.07 178.393 45.3662C178.224 45.4085 177.949 45.2816 177.568 44.9854C177.229 44.6891 176.827 44.266 176.362 43.7158C175.939 43.1234 175.494 42.4251 175.029 41.6211C174.606 40.8171 174.246 39.9284 173.95 38.9551C173.653 38.0664 173.273 36.8815 172.807 35.4004C172.384 34.1309 171.834 32.4805 171.157 30.4492C170.48 28.3757 169.654 25.7943 168.681 22.7051C168.935 26.1751 169.147 29.222 169.316 31.8457C169.485 34.4694 169.612 36.7546 169.697 38.7012C169.824 40.6478 169.908 42.2982 169.951 43.6523C170.035 44.9642 170.078 46.0645 170.078 46.9531C170.12 48.9844 170.056 50.1481 169.887 50.4443C169.464 50.4443 168.999 50.2539 168.491 49.873C168.025 49.4499 167.56 48.9632 167.094 48.4131C166.671 47.8206 166.29 47.2493 165.952 46.6992C165.655 46.1491 165.486 45.7471 165.444 45.4932C165.402 45.3239 165.275 44.541 165.063 43.1445C164.851 41.748 164.597 39.9707 164.301 37.8125C164.047 35.612 163.751 33.1576 163.413 30.4492C163.116 27.6986 162.82 24.9056 162.524 22.0703C162.27 19.235 162.058 16.4844 161.889 13.8184C161.72 11.11 161.635 8.69792 161.635 6.58203C161.635 6.24349 162.058 5.79915 162.905 5.24902C163.751 4.65658 164.703 4.10645 165.761 3.59863C166.861 3.0485 167.877 2.58301 168.808 2.20215C169.739 1.77897 170.31 1.56738 170.522 1.56738C170.691 1.56738 170.861 2.05404 171.03 3.02734C171.241 4.00065 171.474 5.22786 171.728 6.70898C171.982 8.1901 172.257 9.84049 172.553 11.6602C172.849 13.4798 173.188 15.2148 173.569 16.8652C173.865 18.5579 174.225 20.3141 174.648 22.1338C174.986 23.6995 175.367 25.4346 175.791 27.3389C176.256 29.2008 176.764 31.0205 177.314 32.7979C177.906 30.2165 178.435 27.889 178.901 25.8154C179.409 23.6995 179.853 21.901 180.234 20.4199C180.699 18.6849 181.101 17.1403 181.44 15.7861C182.202 12.4854 182.942 9.88281 183.662 7.97852C184.423 6.07422 184.91 4.9528 185.122 4.61426C185.249 4.44499 185.693 4.40267 186.455 4.4873C187.259 4.57194 188.126 4.72005 189.057 4.93164C189.988 5.10091 190.834 5.3125 191.596 5.56641C192.4 5.82031 192.845 6.0319 192.929 6.20117ZM205.955 22.7051C206.039 22.9167 206.082 23.5938 206.082 24.7363C206.124 25.8366 206.124 27.1908 206.082 28.7988C206.082 30.3646 206.039 32.0573 205.955 33.877C205.87 35.6543 205.764 37.347 205.637 38.9551C205.553 40.5208 205.447 41.875 205.32 43.0176C205.193 44.1178 205.066 44.7738 204.939 44.9854C204.558 45.5778 203.987 45.9587 203.225 46.1279C202.463 46.2549 201.913 46.276 201.575 46.1914C201.405 46.1914 201.215 45.7048 201.003 44.7314C200.834 43.7581 200.665 42.5309 200.496 41.0498C200.326 39.5687 200.178 37.9606 200.051 36.2256C199.924 34.4906 199.819 32.8402 199.734 31.2744C199.649 29.6663 199.607 28.2699 199.607 27.085C199.607 25.9001 199.649 25.1383 199.734 24.7998C199.861 24.2497 200.221 23.763 200.813 23.3398C201.448 22.9167 202.104 22.5993 202.781 22.3877C203.5 22.1761 204.156 22.0915 204.749 22.1338C205.383 22.1338 205.785 22.3242 205.955 22.7051ZM206.272 12.4219C206.441 12.7604 206.505 13.2259 206.462 13.8184C206.462 14.4108 206.399 15.0244 206.272 15.6592C206.145 16.2939 205.976 16.9076 205.764 17.5C205.553 18.0924 205.341 18.5579 205.129 18.8965C204.706 19.4889 204.071 19.8698 203.225 20.0391C202.421 20.166 201.829 20.1872 201.448 20.1025C201.152 20.0602 200.855 19.8698 200.559 19.5312C200.263 19.1504 200.009 18.7061 199.797 18.1982C199.586 17.6481 199.438 17.0557 199.353 16.4209C199.268 15.7861 199.29 15.1937 199.417 14.6436C199.543 14.0934 199.945 13.6068 200.623 13.1836C201.3 12.7181 202.019 12.3796 202.781 12.168C203.542 11.9141 204.262 11.8083 204.939 11.8506C205.616 11.8506 206.06 12.041 206.272 12.4219ZM227.676 17.373C227.719 17.5 227.719 17.8597 227.676 18.4521C227.634 19.0023 227.549 19.637 227.422 20.3564C227.338 21.0335 227.232 21.6683 227.105 22.2607C226.978 22.8109 226.872 23.1494 226.788 23.2764C226.364 23.3187 225.941 23.3398 225.518 23.3398C225.095 23.2975 224.693 23.2764 224.312 23.2764H222.979C222.937 26.0693 222.873 28.8411 222.789 31.5918C222.704 34.3424 222.598 36.818 222.471 39.0186C222.344 41.1768 222.196 42.9329 222.027 44.2871C221.9 45.6413 221.773 46.3395 221.646 46.3818C221.35 46.4242 221.011 46.2972 220.63 46.001C220.25 45.7048 219.869 45.3451 219.488 44.9219C219.149 44.4564 218.832 43.9909 218.536 43.5254C218.282 43.0176 218.134 42.5732 218.091 42.1924C217.88 39.611 217.689 37.1566 217.52 34.8291C217.351 32.4593 217.224 30.3646 217.139 28.5449C216.97 26.429 216.864 24.4613 216.822 22.6416C216.356 22.5993 215.891 22.5358 215.425 22.4512C215.002 22.3665 214.558 22.2819 214.092 22.1973C213.669 22.1126 213.225 22.028 212.759 21.9434C212.675 21.8587 212.569 21.6683 212.442 21.3721C212.315 21.0335 212.188 20.6738 212.061 20.293C211.976 19.9121 211.892 19.5524 211.807 19.2139C211.722 18.833 211.68 18.5579 211.68 18.3887C211.68 18.2617 212.146 18.1348 213.077 18.0078C214.05 17.8809 215.235 17.7751 216.631 17.6904C216.547 15.4476 216.483 13.501 216.441 11.8506C216.441 10.1579 216.504 9.0153 216.631 8.42285C216.758 7.61882 217.097 6.8571 217.647 6.1377C218.239 5.37598 218.853 4.72005 219.488 4.16992C220.165 3.61979 220.778 3.21777 221.329 2.96387C221.921 2.66764 222.302 2.58301 222.471 2.70996C222.598 2.7946 222.704 3.23893 222.789 4.04297C222.873 4.80469 222.937 5.84147 222.979 7.15332C223.021 8.46517 223.042 10.0098 223.042 11.7871C223.042 13.5221 223.042 15.363 223.042 17.3096C224.312 17.2249 225.391 17.2038 226.28 17.2461C227.168 17.2461 227.634 17.2884 227.676 17.373ZM246.668 17.373C246.711 17.5 246.711 17.8597 246.668 18.4521C246.626 19.0023 246.542 19.637 246.415 20.3564C246.33 21.0335 246.224 21.6683 246.097 22.2607C245.97 22.8109 245.864 23.1494 245.78 23.2764C245.357 23.3187 244.933 23.3398 244.51 23.3398C244.087 23.2975 243.685 23.2764 243.304 23.2764H241.971C241.929 26.0693 241.865 28.8411 241.781 31.5918C241.696 34.3424 241.59 36.818 241.463 39.0186C241.336 41.1768 241.188 42.9329 241.019 44.2871C240.892 45.6413 240.765 46.3395 240.638 46.3818C240.342 46.4242 240.003 46.2972 239.623 46.001C239.242 45.7048 238.861 45.3451 238.48 44.9219C238.141 44.4564 237.824 43.9909 237.528 43.5254C237.274 43.0176 237.126 42.5732 237.083 42.1924C236.872 39.611 236.681 37.1566 236.512 34.8291C236.343 32.4593 236.216 30.3646 236.131 28.5449C235.962 26.429 235.856 24.4613 235.814 22.6416C235.348 22.5993 234.883 22.5358 234.417 22.4512C233.994 22.3665 233.55 22.2819 233.084 22.1973C232.661 22.1126 232.217 22.028 231.751 21.9434C231.667 21.8587 231.561 21.6683 231.434 21.3721C231.307 21.0335 231.18 20.6738 231.053 20.293C230.969 19.9121 230.884 19.5524 230.799 19.2139C230.715 18.833 230.672 18.5579 230.672 18.3887C230.672 18.2617 231.138 18.1348 232.069 18.0078C233.042 17.8809 234.227 17.7751 235.624 17.6904C235.539 15.4476 235.475 13.501 235.433 11.8506C235.433 10.1579 235.497 9.0153 235.624 8.42285C235.75 7.61882 236.089 6.8571 236.639 6.1377C237.232 5.37598 237.845 4.72005 238.48 4.16992C239.157 3.61979 239.771 3.21777 240.321 2.96387C240.913 2.66764 241.294 2.58301 241.463 2.70996C241.59 2.7946 241.696 3.23893 241.781 4.04297C241.865 4.80469 241.929 5.84147 241.971 7.15332C242.014 8.46517 242.035 10.0098 242.035 11.7871C242.035 13.5221 242.035 15.363 242.035 17.3096C243.304 17.2249 244.383 17.2038 245.272 17.2461C246.161 17.2461 246.626 17.2884 246.668 17.373ZM268.708 16.6113C268.961 16.9076 269.194 17.2249 269.406 17.5635C269.617 17.8597 269.808 18.2829 269.977 18.833C270.146 19.3408 270.273 20.0179 270.358 20.8643C270.485 21.7106 270.548 22.8109 270.548 24.165C270.548 26.3232 270.485 28.5026 270.358 30.7031C270.273 32.8613 270.189 34.7656 270.104 36.416C270.062 37.8971 270.019 39.2725 269.977 40.542C269.935 41.8115 269.892 42.9329 269.85 43.9062C269.808 44.8372 269.744 45.5778 269.66 46.1279C269.617 46.6781 269.575 46.9743 269.533 47.0166C269.363 47.1436 269.088 47.1012 268.708 46.8896C268.369 46.6357 267.988 46.3184 267.565 45.9375C267.184 45.5566 266.824 45.1546 266.486 44.7314C266.147 44.3083 265.936 43.9697 265.851 43.7158C265.851 43.5042 265.788 42.8906 265.661 41.875C264.645 42.4674 263.524 42.8906 262.296 43.1445C261.069 43.3561 259.842 43.4408 258.615 43.3984C257.43 43.3138 256.33 43.0811 255.314 42.7002C254.298 42.3193 253.537 41.8115 253.029 41.1768C252.817 40.9229 252.627 40.542 252.458 40.0342C252.331 39.5264 252.204 38.9551 252.077 38.3203C251.992 37.6432 251.907 36.945 251.823 36.2256C251.738 35.4639 251.675 34.7656 251.632 34.1309C251.548 32.4805 251.759 31.0628 252.267 29.8779C252.775 28.6507 253.706 27.7409 255.06 27.1484C255.653 26.8945 256.435 26.7676 257.409 26.7676C258.424 26.7253 259.419 26.7676 260.392 26.8945C261.408 26.9792 262.318 27.1061 263.122 27.2754C263.926 27.4023 264.433 27.5081 264.645 27.5928C264.476 25.4346 264.349 23.5726 264.264 22.0068C264.18 20.3988 264.01 19.362 263.756 18.8965C263.545 18.6003 263.291 18.304 262.995 18.0078C262.741 17.7962 262.402 17.5635 261.979 17.3096C261.556 17.0557 261.048 16.8652 260.456 16.7383C259.99 16.6536 259.567 16.8441 259.186 17.3096C258.847 17.7327 258.53 18.4945 258.234 19.5947C257.98 20.6527 257.832 22.2819 257.79 24.4824C256.308 24.5247 255.166 24.5247 254.362 24.4824C253.6 24.3978 253.029 24.3132 252.648 24.2285C252.182 24.1439 251.907 24.0381 251.823 23.9111C251.738 23.7419 251.78 23.1283 251.95 22.0703C252.119 20.9701 252.352 19.7852 252.648 18.5156C252.986 17.2461 253.367 16.04 253.791 14.8975C254.256 13.7549 254.743 13.0355 255.25 12.7393C256.266 12.1468 257.472 11.9352 258.869 12.1045C260.307 12.2738 261.704 12.6335 263.058 13.1836C264.412 13.7337 265.618 14.3473 266.676 15.0244C267.734 15.7015 268.411 16.2305 268.708 16.6113ZM264.772 35.1465C264.772 34.9349 264.793 34.6598 264.835 34.3213C264.878 33.9404 264.899 33.5596 264.899 33.1787C264.899 32.7979 264.878 32.4382 264.835 32.0996C264.835 31.7611 264.793 31.5072 264.708 31.3379C264.582 31.084 264.201 30.8724 263.566 30.7031C262.973 30.5339 262.296 30.4281 261.535 30.3857C260.773 30.3011 260.054 30.2799 259.376 30.3223C258.699 30.3223 258.234 30.4069 257.98 30.5762C257.641 30.7878 257.388 31.084 257.218 31.4648C257.091 31.8457 257.007 32.4382 256.964 33.2422C256.964 33.623 256.986 34.0251 257.028 34.4482C257.07 34.8714 257.112 35.2946 257.155 35.7178C257.239 36.0986 257.324 36.4372 257.409 36.7334C257.536 37.0296 257.663 37.2201 257.79 37.3047C258.086 37.5163 258.594 37.7067 259.313 37.876C260.075 38.0029 260.836 38.0452 261.598 38.0029C262.36 37.9183 263.058 37.6644 263.693 37.2412C264.328 36.818 264.687 36.1198 264.772 35.1465ZM283.129 49.6191C282.833 49.7038 282.495 49.598 282.114 49.3018C281.733 49.0055 281.352 48.6458 280.971 48.2227C280.633 47.7572 280.336 47.2705 280.083 46.7627C279.829 46.2549 279.659 45.8317 279.575 45.4932C279.278 41.7692 279.025 38.4473 278.813 35.5273C278.644 32.5651 278.496 29.9414 278.369 27.6562C278.242 25.3711 278.136 23.4033 278.051 21.7529C278.009 20.0602 277.988 18.6214 277.988 17.4365C277.945 14.6859 277.988 12.7816 278.115 11.7236C278.242 10.9619 278.58 10.2002 279.13 9.43848C279.723 8.67676 280.336 8.02083 280.971 7.4707C281.648 6.92057 282.262 6.4974 282.812 6.20117C283.404 5.90495 283.785 5.82031 283.955 5.94727C284.124 6.07422 284.251 6.79362 284.335 8.10547C284.42 9.375 284.484 11.0465 284.526 13.1201C284.568 15.1937 284.568 17.5212 284.526 20.1025C284.526 22.6839 284.484 25.3288 284.399 28.0371C284.357 30.7454 284.293 33.3903 284.208 35.9717C284.124 38.5531 284.018 40.8594 283.891 42.8906C283.764 44.8796 283.637 46.4876 283.51 47.7148C283.383 48.9421 283.256 49.5768 283.129 49.6191Z" fill="url(#paint0_linear_117_6207)"/>
<defs>
<linearGradient id="paint0_linear_117_6207" x1="143.5" y1="-10" x2="143.5" y2="64" gradientUnits="userSpaceOnUse">
<stop offset="0.405"/>
<stop offset="0.9999" stop-color="#6D542C"/>
</linearGradient>
</defs>
</svg>
